<svg xmlns="http://www.w3.org/2000/svg" viewBox="0 0 1600 1200"><title>abstract-border-collie-dog-portrait-in-low-poly-vector-design</title><g id="Background"><rect id="color" width="1600" height="1200" fill="#5b89d9"/></g><g id="Design"><polygon points="229.83 999.25 198.76 1095.91 228.68 1074.05 229.83 999.25" fill="#c3ddf6"/><polygon points="198.76 1095.91 192.26 1200 220.98 1200 232.13 1147.69 198.76 1095.91" fill="#60708e"/><polygon points="228.68 1074.05 198.76 1095.91 232.13 1147.69 228.68 1074.05" fill="#8295b1"/><polygon points="220.98 1200 254.36 1200 232.13 1147.69 220.98 1200" fill="#435777"/><polygon points="321.89 1071.75 229.83 999.25 228.68 1074.05 321.89 1071.75" fill="#d0e0ed"/><polygon points="232.13 1147.69 321.89 1071.75 228.68 1074.05 232.13 1147.69" fill="#93a4c0"/><polygon points="254.36 1200 297.85 1200 232.13 1147.69 254.36 1200" fill="#546187"/><polygon points="232.13 1147.69 297.85 1200 339.7 1200 321.89 1071.75 232.13 1147.69" fill="#92a8c4"/><polygon points="339.15 878.42 304.63 891.08 349.51 930.21 339.15 878.42" fill="#d1e2f1"/><polygon points="304.63 891.08 229.83 999.25 349.51 930.21 304.63 891.08" fill="#abcee2"/><polygon points="361.02 971.63 229.83 999.25 321.89 1071.75 361.02 971.63" fill="#e7f5fd"/><polygon points="349.51 930.21 229.83 999.25 361.02 971.63 349.51 930.21" fill="#d3e6f5"/><polygon points="382.88 876.12 339.15 878.42 349.51 930.21 382.88 876.12" fill="#b6d2ec"/><polygon points="349.51 930.21 361.02 971.63 382.88 876.12 349.51 930.21" fill="#abc3d7"/><polygon points="341.45 495.23 396.69 500.98 342.61 468.76 341.45 495.23" fill="#201627"/><polygon points="355.26 520.55 396.69 500.98 341.45 495.23 355.26 520.55" fill="#271f32"/><polygon points="321.89 1071.75 339.7 1200 365.88 1200 409.35 1122.38 321.89 1071.75" fill="#c2d3ee"/><polygon points="321.89 1071.75 409.35 1122.38 361.02 971.63 321.89 1071.75" fill="#dce9f4"/><polygon points="412.8 681.65 339.15 878.42 382.88 876.12 412.8 681.65" fill="#b5d4e8"/><polygon points="419.7 297.31 371.37 352.54 403.59 321.47 419.7 297.31" fill="#313248"/><polygon points="342.61 468.76 419.7 471.06 361.02 421.58 342.61 468.76" fill="#242844"/><polygon points="396.69 500.98 419.7 471.06 342.61 468.76 396.69 500.98" fill="#0a091d"/><polygon points="365.88 1200 415.4 1200 409.35 1122.38 365.88 1200" fill="#a2b7d5"/><polygon points="382.88 876.12 361.02 971.63 447.32 869.22 382.88 876.12" fill="#deebf3"/><polygon points="361.02 421.58 419.7 471.06 448.47 418.13 361.02 421.58" fill="#0a0b25"/><polygon points="419.7 471.06 445.02 460.71 448.47 418.13 419.7 471.06" fill="#0f1028"/><polygon points="364.47 389.36 361.02 421.58 448.47 418.13 364.47 389.36" fill="#2b3151"/><polygon points="403.59 321.47 371.37 352.54 459.98 366.35 403.59 321.47" fill="#121025"/><polygon points="371.37 352.54 364.47 389.36 459.98 366.35 371.37 352.54" fill="#32374d"/><polygon points="459.98 366.35 364.47 389.36 448.47 418.13 459.98 366.35" fill="#0b0e1e"/><polygon points="459.98 366.35 419.7 297.31 403.59 321.47 459.98 366.35" fill="#211f35"/><polyline points="412.8 681.65 463.43 726.53 462.28 667.84" fill="#374c85"/><polygon points="463.43 726.53 412.8 681.65 382.88 876.12 463.43 726.53" fill="#8bb8e0"/><polygon points="480.69 243.22 419.7 297.31 470.34 263.93 480.69 243.22" fill="#3a5373"/><polygon points="481.84 800.17 382.88 876.12 447.32 869.22 481.84 800.17" fill="#7d93ad"/><polygon points="463.43 726.53 382.88 876.12 481.84 800.17 463.43 726.53" fill="#7081a5"/><polygon points="361.02 971.63 409.35 1122.38 482.99 1031.47 361.02 971.63" fill="#8390b3"/><polygon points="448.47 418.13 445.02 460.71 484.14 483.72 448.47 418.13" fill="#12102c"/><polygon points="445.02 460.71 458.83 538.96 484.14 483.72 445.02 460.71" fill="#393c53"/><polygon points="481.84 800.17 447.32 869.22 484.14 850.81 481.84 800.17" fill="#8ca6c5"/><polygon points="487.6 208.7 419.7 297.31 480.69 243.22 487.6 208.7" fill="#4f5a76"/><polygon points="499.11 232.86 487.6 208.7 480.69 243.22 499.11 232.86" fill="#1e2236"/><polygon points="480.69 243.22 470.34 263.93 499.11 232.86 480.69 243.22" fill="#1d1e32"/><polygon points="470.34 263.93 501.41 308.81 499.11 232.86 470.34 263.93" fill="#0a0a1d"/><polygon points="501.41 308.81 419.7 297.31 459.98 366.35 501.41 308.81" fill="#0b0e1e"/><polygon points="470.34 263.93 419.7 297.31 501.41 308.81 470.34 263.93" fill="#050515"/><polygon points="509.46 196.04 487.6 208.7 499.11 232.86 509.46 196.04" fill="#080a20"/><polygon points="447.32 869.22 510.61 955.52 484.14 850.81 447.32 869.22" fill="#536d8e"/><polygon points="447.32 869.22 361.02 971.63 510.61 955.52 447.32 869.22" fill="#848bb7"/><polygon points="510.61 955.52 361.02 971.63 482.99 1031.47 510.61 955.52" fill="#8287ac"/><polygon points="510.61 955.52 482.99 1031.47 520.97 979.69 510.61 955.52" fill="#898db6"/><polygon points="409.35 1122.38 415.4 1200 526.42 1200 531.33 1196.03 409.35 1122.38" fill="#8294b1"/><polygon points="526.42 1200 530.73 1200 531.33 1196.03 526.42 1200" fill="#515875"/><polygon points="482.99 1031.47 409.35 1122.38 535.93 1154.6 482.99 1031.47" fill="#b1c3dc"/><polygon points="409.35 1122.38 531.33 1196.03 535.93 1154.6 409.35 1122.38" fill="#abbfdd"/><polygon points="520.97 979.69 482.99 1031.47 547.43 1013.06 520.97 979.69" fill="#6e7093"/><polygon points="482.99 1031.47 535.93 1154.6 547.43 1013.06 482.99 1031.47" fill="#64658c"/><polygon points="501.41 308.81 459.98 366.35 548.59 397.42 501.41 308.81" fill="#20202c"/><polygon points="459.98 366.35 448.47 418.13 548.59 397.42 459.98 366.35" fill="#101629"/><polygon points="448.47 418.13 484.14 483.72 548.59 397.42 448.47 418.13" fill="#1a1c25"/><polygon points="552.04 208.7 509.46 196.04 499.11 232.86 552.04 208.7" fill="#040714"/><polygon points="484.14 850.81 510.61 955.52 552.04 887.63 484.14 850.81" fill="#121637"/><polygon points="552.04 887.63 510.61 955.52 520.97 979.69 552.04 887.63" fill="#454a66"/><polygon points="520.97 979.69 547.43 1013.06 552.04 887.63 520.97 979.69" fill="#718598"/><polygon points="458.83 538.96 455.38 606.85 555.49 575.78 458.83 538.96" fill="#04050a"/><polygon points="484.14 483.72 458.83 538.96 555.49 575.78 484.14 483.72" fill="#040b31"/><polygon points="499.11 232.86 501.41 308.81 560.09 262.78 499.11 232.86" fill="#0a0918"/><polygon points="552.04 208.7 499.11 232.86 560.09 262.78 552.04 208.7" fill="#0f0f1b"/><polygon points="560.09 176.48 509.46 196.04 552.04 208.7 560.09 176.48" fill="#3c4672"/><polygon points="563.55 666.69 455.38 606.85 462.28 667.84 563.55 666.69" fill="#0b1024"/><polygon points="555.49 575.78 455.38 606.85 563.55 666.69 555.49 575.78" fill="#2c3458"/><polygon points="462.28 667.84 463.43 726.53 563.55 666.69 462.28 667.84" fill="#2c3360"/><polygon points="575.05 755.3 463.43 726.53 481.84 800.17 575.05 755.3" fill="#181e44"/><polygon points="563.55 666.69 463.43 726.53 575.05 755.3 563.55 666.69" fill="#2c365f"/><polygon points="548.59 397.42 484.14 483.72 576.2 506.74 548.59 397.42" fill="#080c2c"/><polygon points="484.14 483.72 555.49 575.78 576.2 506.74 484.14 483.72" fill="#404c6e"/><polygon points="580.81 315.72 501.41 308.81 548.59 397.42 580.81 315.72" fill="#040408"/><polygon points="560.09 262.78 501.41 308.81 580.81 315.72 560.09 262.78" fill="#08060f"/><polygon points="581.96 281.19 560.09 262.78 580.81 315.72 581.96 281.19" fill="#0d1532"/><polygon points="575.05 755.3 481.84 800.17 584.26 842.75 575.05 755.3" fill="#171b3a"/><polygon points="584.26 842.75 481.84 800.17 484.14 850.81 584.26 842.75" fill="#333d63"/><polygon points="484.14 850.81 552.04 887.63 584.26 842.75 484.14 850.81" fill="#0b0f1e"/><polygon points="585.41 183.38 560.09 176.48 552.04 208.7 585.41 183.38" fill="#1e1f34"/><polygon points="560.09 262.78 585.41 183.38 552.04 208.7 560.09 262.78" fill="#050412"/><polygon points="548.59 397.42 576.2 506.74 615.33 435.39 548.59 397.42" fill="#050624"/><polygon points="580.81 315.72 548.59 397.42 615.33 435.39 580.81 315.72" fill="#080929"/><polygon points="547.43 1013.06 535.93 1154.6 616.48 1075.2 547.43 1013.06" fill="#93a7c5"/><polygon points="617.63 772.56 575.05 755.3 584.26 842.75 617.63 772.56" fill="#252c44"/><polygon points="594.62 162.67 585.41 183.38 644.1 208.7 594.62 162.67" fill="#121d37"/><polygon points="640.64 132.75 594.62 162.67 644.1 208.7 640.64 132.75" fill="#22284a"/><polygon points="644.1 208.7 560.09 262.78 581.96 281.19 644.1 208.7" fill="#151a3a"/><polygon points="644.1 208.7 585.41 183.38 560.09 262.78 644.1 208.7" fill="#1a203b"/><polygon points="531.33 1196.03 655.6 1169.56 535.93 1154.6 531.33 1196.03" fill="#17193a"/><polygon points="530.73 1200 539.73 1200 531.33 1196.03 530.73 1200" fill="#0b0d21"/><polygon points="531.33 1196.03 539.73 1200 656.42 1200 655.6 1169.56 531.33 1196.03" fill="#181937"/><polygon points="535.93 1154.6 661.36 1122.38 616.48 1075.2 535.93 1154.6" fill="#3f4667"/><polygon points="535.93 1154.6 655.6 1169.56 661.36 1122.38 535.93 1154.6" fill="#2e2d50"/><polygon points="665.96 143.11 640.64 132.75 644.1 208.7 665.96 143.11" fill="#26335c"/><polygon points="584.26 842.75 552.04 887.63 671.71 918.7 584.26 842.75" fill="#b5c1dc"/><polygon points="552.04 887.63 547.43 1013.06 671.71 918.7 552.04 887.63" fill="#b4bfd5"/><polygon points="547.43 1013.06 616.48 1075.2 671.71 918.7 547.43 1013.06" fill="#a7b7e1"/><polygon points="672.87 335.28 580.81 315.72 615.33 435.39 672.87 335.28" fill="#08071e"/><polygon points="581.96 281.19 580.81 315.72 672.87 335.28 581.96 281.19" fill="#0b0b27"/><polygon points="678.62 746.09 680.92 694.31 617.63 772.56 678.62 746.09" fill="#0b0f1a"/><polygon points="680.92 694.31 563.55 666.69 575.05 755.3 680.92 694.31" fill="#030310"/><polygon points="680.92 694.31 575.05 755.3 617.63 772.56 680.92 694.31" fill="#050915"/><polygon points="685.52 167.27 665.96 143.11 644.1 208.7 685.52 167.27" fill="#3c4f8c"/><polygon points="555.49 575.78 563.55 666.69 686.67 647.13 555.49 575.78" fill="#060612"/><polygon points="686.67 647.13 563.55 666.69 680.92 694.31 686.67 647.13" fill="#0b0e21"/><polygon points="678.62 746.09 617.63 772.56 686.67 763.35 678.62 746.09" fill="#6586bd"/><polygon points="697.03 240.92 644.1 208.7 581.96 281.19 697.03 240.92" fill="#182545"/><polygon points="697.03 240.92 581.96 281.19 672.87 335.28 697.03 240.92" fill="#0a0a14"/><polygon points="576.2 506.74 555.49 575.78 699.33 614.91 576.2 506.74" fill="#0f0f2d"/><polygon points="699.33 614.91 555.49 575.78 686.67 647.13 699.33 614.91" fill="#1e2140"/><polygon points="703.93 205.25 685.52 167.27 644.1 208.7 703.93 205.25" fill="#3c4d7f"/><polygon points="703.93 205.25 644.1 208.7 697.03 240.92 703.93 205.25" fill="#474864"/><polygon points="672.87 335.28 615.33 435.39 706.24 420.43 672.87 335.28" fill="#1a203d"/><polygon points="706.24 420.43 615.33 435.39 698.18 433.09 706.24 420.43" fill="#0a0b28"/><polygon points="715.44 319.17 697.03 240.92 672.87 335.28 715.44 319.17" fill="#030620"/><polygon points="716.59 179.93 685.52 167.27 703.93 205.25 716.59 179.93" fill="#42599f"/><polygon points="708.54 154.61 685.52 167.27 716.59 179.93 708.54 154.61" fill="#4d5f89"/><polygon points="724.65 810.53 584.26 842.75 671.71 918.7 724.65 810.53" fill="#94afdd"/><polygon points="617.63 772.56 584.26 842.75 724.65 810.53 617.63 772.56" fill="#7b90c7"/><polygon points="686.67 763.35 617.63 772.56 724.65 810.53 686.67 763.35" fill="#93b3e7"/><polygon points="725.8 397.42 672.87 335.28 706.24 420.43 725.8 397.42" fill="#313f6f"/><polygon points="715.44 319.17 672.87 335.28 725.8 397.42 715.44 319.17" fill="#171d3a"/><polygon points="725.8 397.42 706.24 420.43 725.8 422.73 725.8 397.42" fill="#101627"/><polygon points="706.24 420.43 698.18 433.09 725.8 422.73 706.24 420.43" fill="#01040a"/><polygon points="698.18 433.09 722.35 450.35 725.8 422.73 698.18 433.09" fill="#0b0c1a"/><polygon points="576.2 506.74 699.33 614.91 728.1 572.33 576.2 506.74" fill="#0b0a17"/><polygon points="725.8 422.73 722.35 450.35 730.4 443.45 725.8 422.73" fill="#591b18"/><polygon points="616.48 1075.2 661.36 1122.38 731.55 1055.64 616.48 1075.2" fill="#a7bbd7"/><polygon points="616.48 1075.2 731.55 1055.64 671.71 918.7 616.48 1075.2" fill="#b9c8e4"/><polygon points="686.67 647.13 680.92 694.31 736.15 700.06 686.67 647.13" fill="#718ac6"/><polygon points="736.15 700.06 680.92 694.31 678.62 746.09 736.15 700.06" fill="#7e9ad2"/><polygon points="725.8 422.73 730.4 443.45 738.46 433.09 725.8 422.73" fill="#3d313d"/><polygon points="738.46 497.53 576.2 506.74 728.1 572.33 738.46 497.53" fill="#000210"/><polygon points="698.18 433.09 738.46 497.53 722.35 450.35 698.18 433.09" fill="#121030"/><polygon points="615.33 435.39 576.2 506.74 738.46 497.53 615.33 435.39" fill="#02010f"/><polygon points="615.33 435.39 738.46 497.53 698.18 433.09 615.33 435.39" fill="#293051"/><polygon points="744.21 314.56 697.03 240.92 715.44 319.17 744.21 314.56" fill="#202748"/><polygon points="744.21 428.49 725.8 422.73 738.46 433.09 744.21 428.49" fill="#170910"/><polygon points="716.59 179.93 703.93 205.25 745.36 193.74 716.59 179.93" fill="#4c5a8c"/><polygon points="745.36 193.74 703.93 205.25 697.03 240.92 745.36 193.74" fill="#35395e"/><polygon points="747.66 731.13 678.62 746.09 686.67 763.35 747.66 731.13" fill="#6483c3"/><polygon points="736.15 700.06 678.62 746.09 747.66 731.13 736.15 700.06" fill="#81a0d7"/><polygon points="749.96 410.08 725.8 397.42 725.8 422.73 749.96 410.08" fill="#08080a"/><polygon points="749.96 410.08 725.8 422.73 744.21 428.49 749.96 410.08" fill="#89acd9"/><polygon points="722.35 450.35 751.12 457.26 730.4 443.45 722.35 450.35" fill="#2e2844"/><polygon points="722.35 450.35 738.46 497.53 751.12 457.26 722.35 450.35" fill="#151732"/><polygon points="731.55 1055.64 751.12 1015.36 671.71 918.7 731.55 1055.64" fill="#abb6d2"/><polygon points="752.27 716.17 736.15 700.06 747.66 731.13 752.27 716.17" fill="#8093be"/><polygon points="661.36 1122.38 655.6 1169.56 753.42 1139.64 661.36 1122.38" fill="#364161"/><polygon points="731.55 1055.64 661.36 1122.38 754.57 1075.2 731.55 1055.64" fill="#afbfdc"/><polygon points="661.36 1122.38 753.42 1139.64 754.57 1075.2 661.36 1122.38" fill="#abbbd6"/><polygon points="754.57 1075.2 751.12 1015.36 731.55 1055.64 754.57 1075.2" fill="#7b86a3"/><polygon points="738.46 433.09 755.72 445.75 744.21 428.49 738.46 433.09" fill="#150a03"/><polygon points="730.4 443.45 755.72 445.75 738.46 433.09 730.4 443.45" fill="#414655"/><polygon points="730.4 443.45 751.12 457.26 755.72 445.75 730.4 443.45" fill="#381d15"/><polygon points="756.87 425.04 749.96 410.08 744.21 428.49 756.87 425.04" fill="#080a18"/><polygon points="744.21 428.49 755.72 445.75 756.87 425.04 744.21 428.49" fill="#050202"/><polygon points="686.67 763.35 724.65 810.53 759.17 767.95 686.67 763.35" fill="#7494c6"/><polygon points="747.66 731.13 686.67 763.35 759.17 767.95 747.66 731.13" fill="#86a4dc"/><polygon points="759.17 391.66 725.8 397.42 749.96 410.08 759.17 391.66" fill="#0f0d15"/><polygon points="759.17 391.66 715.44 319.17 725.8 397.42 759.17 391.66" fill="#576eb1"/><polygon points="744.21 314.56 715.44 319.17 759.17 391.66 744.21 314.56" fill="#1e2147"/><polygon points="655.6 1169.56 656.42 1200 750.66 1200 759.17 1194.88 655.6 1169.56" fill="#181b3b"/><polygon points="655.6 1169.56 759.17 1194.88 753.42 1139.64 655.6 1169.56" fill="#0f1639"/><polygon points="724.65 810.53 671.71 918.7 760.32 841.6 724.65 810.53" fill="#7183b2"/><polygon points="761.47 146.56 708.54 154.61 716.59 179.93 761.47 146.56" fill="#3d4973"/><polygon points="761.47 413.53 749.96 410.08 756.87 425.04 761.47 413.53" fill="#40417e"/><polygon points="761.47 413.53 759.17 391.66 749.96 410.08 761.47 413.53" fill="#1d2121"/><polygon points="763.77 171.88 716.59 179.93 745.36 193.74 763.77 171.88" fill="#474c65"/><polygon points="763.77 171.88 761.47 146.56 716.59 179.93 763.77 171.88" fill="#445383"/><polygon points="738.46 497.53 728.1 572.33 766.07 535.51 738.46 497.53" fill="#242d4e"/><polygon points="752.27 716.17 747.66 731.13 767.23 727.68 752.27 716.17" fill="#2b3055"/><polygon points="767.23 727.68 747.66 731.13 759.17 767.95 767.23 727.68" fill="#3b436b"/><polygon points="755.72 445.75 771.83 443.45 756.87 425.04 755.72 445.75" fill="#50272b"/><polygon points="774.13 618.36 736.15 700.06 752.27 716.17 774.13 618.36" fill="#89a6d7"/><polygon points="728.1 572.33 774.13 618.36 766.07 535.51 728.1 572.33" fill="#91aee6"/><polygon points="699.33 614.91 686.67 647.13 774.13 618.36 699.33 614.91" fill="#6380bf"/><polygon points="774.13 618.36 686.67 647.13 736.15 700.06 774.13 618.36" fill="#93a9d9"/><polygon points="728.1 572.33 699.33 614.91 774.13 618.36 728.1 572.33" fill="#8fa5d7"/><polygon points="774.13 316.87 744.21 314.56 759.17 391.66 774.13 316.87" fill="#0b0b24"/><polygon points="751.12 457.26 776.43 456.11 755.72 445.75 751.12 457.26" fill="#272b48"/><polygon points="755.72 445.75 776.43 456.11 771.83 443.45 755.72 445.75" fill="#14192f"/><polygon points="751.12 457.26 738.46 497.53 776.43 456.11 751.12 457.26" fill="#151937"/><polygon points="777.58 397.42 759.17 391.66 761.47 413.53 777.58 397.42" fill="#03050a"/><polygon points="759.17 767.95 724.65 810.53 778.73 801.33 759.17 767.95" fill="#708ec3"/><polygon points="778.73 801.33 724.65 810.53 760.32 841.6 778.73 801.33" fill="#6d87bc"/><polygon points="777.58 397.42 761.47 413.53 778.73 421.58 777.58 397.42" fill="#080808"/><polygon points="778.73 421.58 761.47 413.53 756.87 425.04 778.73 421.58" fill="#08040d"/><polygon points="756.87 425.04 771.83 443.45 778.73 421.58 756.87 425.04" fill="#160714"/><polygon points="786.79 192.59 763.77 171.88 745.36 193.74 786.79 192.59" fill="#8895ac"/><polygon points="789.09 411.23 777.58 397.42 778.73 421.58 789.09 411.23" fill="#0d1527"/><polygon points="767.23 727.68 759.17 767.95 792.54 743.79 767.23 727.68" fill="#080820"/><polygon points="771.83 443.45 776.43 456.11 795.99 444.6 771.83 443.45" fill="#323f51"/><polygon points="771.83 443.45 795.99 444.6 778.73 421.58 771.83 443.45" fill="#5e536d"/><polygon points="776.43 456.11 798.29 502.13 795.99 444.6 776.43 456.11" fill="#0a0820"/><polygon points="798.29 502.13 738.46 497.53 766.07 535.51 798.29 502.13" fill="#334164"/><polygon points="776.43 456.11 738.46 497.53 798.29 502.13 776.43 456.11" fill="#141634"/><polygon points="799.45 242.07 786.79 192.59 745.36 193.74 799.45 242.07" fill="#b5c1d1"/><polygon points="774.13 316.87 799.45 242.07 744.21 314.56 774.13 316.87" fill="#343751"/><polygon points="799.45 242.07 697.03 240.92 744.21 314.56 799.45 242.07" fill="#373955"/><polygon points="745.36 193.74 697.03 240.92 799.45 242.07 745.36 193.74" fill="#3a4470"/><polygon points="760.32 841.6 799.45 824.34 778.73 801.33 760.32 841.6" fill="#8fa4d9"/><polygon points="778.73 421.58 800.6 438.85 789.09 411.23 778.73 421.58" fill="#474e69"/><polygon points="778.73 421.58 795.99 444.6 800.6 438.85 778.73 421.58" fill="#040f24"/><polygon points="798.29 502.13 766.07 535.51 800.6 521.7 798.29 502.13" fill="#b7c2d7"/><polygon points="754.57 1075.2 800.6 1129.28 751.12 1015.36 754.57 1075.2" fill="#99a7ca"/><polygon points="753.42 1139.64 800.6 1129.28 754.57 1075.2 753.42 1139.64" fill="#3a3b59"/><polygon points="750.66 1200 761.92 1200 759.17 1194.88 750.66 1200" fill="#5b6f98"/><polygon points="804.05 331.83 774.13 316.87 759.17 391.66 804.05 331.83" fill="#06050f"/><polygon points="804.05 331.83 759.17 391.66 777.58 397.42 804.05 331.83" fill="#0f0f28"/><polygon points="759.17 1194.88 761.92 1200 803.7 1200 804.05 1186.82 759.17 1194.88" fill="#3c456a"/><polygon points="759.17 1194.88 804.05 1186.82 753.42 1139.64 759.17 1194.88" fill="#515981"/><polygon points="753.42 1139.64 804.05 1186.82 800.6 1129.28 753.42 1139.64" fill="#edf1f5"/><polygon points="760.32 841.6 809.8 884.18 799.45 824.34 760.32 841.6" fill="#6a82bf"/><polygon points="671.71 918.7 751.12 1015.36 809.8 884.18 671.71 918.7" fill="#8ba1c5"/><polygon points="671.71 918.7 809.8 884.18 760.32 841.6 671.71 918.7" fill="#877f9e"/><polygon points="810.95 140.81 761.47 146.56 763.77 171.88 810.95 140.81" fill="#d1e1f2"/><polygon points="786.79 192.59 810.95 140.81 763.77 171.88 786.79 192.59" fill="#e1e8eb"/><polygon points="759.17 767.95 778.73 801.33 812.1 759.9 759.17 767.95" fill="#282c59"/><polygon points="792.54 743.79 759.17 767.95 812.1 759.9 792.54 743.79" fill="#15182b"/><polygon points="766.07 535.51 774.13 618.36 812.1 551.62 766.07 535.51" fill="#95b6e3"/><polygon points="766.07 535.51 812.1 551.62 800.6 521.7 766.07 535.51" fill="#6d94d2"/><polygon points="825.91 289.25 799.45 242.07 774.13 316.87 825.91 289.25" fill="#4c638b"/><polygon points="825.91 289.25 774.13 316.87 804.05 331.83 825.91 289.25" fill="#31395e"/><polygon points="792.54 743.79 828.21 644.83 767.23 727.68 792.54 743.79" fill="#8aa4c8"/><polygon points="828.21 644.83 752.27 716.17 767.23 727.68 828.21 644.83" fill="#7395c0"/><polygon points="828.21 644.83 774.13 618.36 752.27 716.17 828.21 644.83" fill="#4a5d89"/><polygon points="829.37 468.76 798.29 502.13 800.6 521.7 829.37 468.76" fill="#c3d2e0"/><polygon points="795.99 444.6 798.29 502.13 829.37 468.76 795.99 444.6" fill="#202139"/><polygon points="795.99 444.6 829.37 468.76 800.6 438.85 795.99 444.6" fill="#101431"/><polygon points="833.97 339.88 825.91 289.25 804.05 331.83 833.97 339.88" fill="#5c7cb2"/><polygon points="833.97 339.88 804.05 331.83 777.58 397.42 833.97 339.88" fill="#10122c"/><polygon points="835.12 411.23 777.58 397.42 789.09 411.23 835.12 411.23" fill="#0a0918"/><polygon points="835.12 411.23 833.97 339.88 777.58 397.42 835.12 411.23" fill="#0a0a22"/><polygon points="800.6 438.85 835.12 411.23 789.09 411.23 800.6 438.85" fill="#04040f"/><polygon points="778.73 801.33 799.45 824.34 839.72 801.33 778.73 801.33" fill="#242e4f"/><polygon points="812.1 759.9 778.73 801.33 839.72 782.91 812.1 759.9" fill="#0f1029"/><polygon points="839.72 782.91 778.73 801.33 839.72 801.33 839.72 782.91" fill="#171d3d"/><polygon points="812.1 759.9 839.72 782.91 836.27 767.95 812.1 759.9" fill="#415173"/><polygon points="799.45 824.34 809.8 884.18 842.02 858.86 799.45 824.34" fill="#374c85"/><polygon points="812.1 551.62 774.13 618.36 843.17 579.23 812.1 551.62" fill="#94b7df"/><polygon points="843.17 174.18 786.79 192.59 799.45 242.07 843.17 174.18" fill="#f0f2ed"/><polygon points="843.17 174.18 810.95 140.81 786.79 192.59 843.17 174.18" fill="#edf0f2"/><polygon points="839.72 801.33 799.45 824.34 844.32 827.79 839.72 801.33" fill="#0a1439"/><polygon points="799.45 824.34 842.02 858.86 844.32 827.79 799.45 824.34" fill="#0b0c2d"/><polygon points="812.1 551.62 843.17 579.23 845.48 576.93 812.1 551.62" fill="#d1dde8"/><polygon points="844.32 827.79 842.02 858.86 846.63 857.71 844.32 827.79" fill="#6d8099"/><polygon points="843.17 579.23 853.53 608 845.48 576.93 843.17 579.23" fill="#e0e0f1"/><polygon points="853.53 608 828.21 644.83 847.78 628.72 853.53 608" fill="#6388aa"/><polygon points="853.53 608 774.13 618.36 828.21 644.83 853.53 608" fill="#93b3de"/><polygon points="843.17 579.23 774.13 618.36 853.53 608 843.17 579.23" fill="#9ebdda"/><polygon points="847.78 628.72 828.21 644.83 854.68 650.58 847.78 628.72" fill="#98b6d1"/><polygon points="800.6 438.85 829.37 468.76 854.68 452.65 800.6 438.85" fill="#04040f"/><polygon points="854.68 452.65 835.12 411.23 800.6 438.85 854.68 452.65" fill="#202139"/><polygon points="809.8 884.18 751.12 1015.36 856.98 914.1 809.8 884.18" fill="#989eb9"/><polygon points="858.13 137.35 810.95 140.81 843.17 174.18 858.13 137.35" fill="#d9e8ed"/><polygon points="842.02 858.86 862.74 871.52 846.63 857.71 842.02 858.86" fill="#2d3259"/><polygon points="842.02 858.86 809.8 884.18 862.74 871.52 842.02 858.86" fill="#5d82c8"/><polygon points="809.8 884.18 856.98 914.1 862.74 871.52 809.8 884.18" fill="#496cab"/><polygon points="846.63 857.71 862.74 871.52 844.32 827.79 846.63 857.71" fill="#b1a8bb"/><polygon points="865.04 221.36 799.45 242.07 825.91 289.25 865.04 221.36" fill="#fafdfc"/><polygon points="865.04 221.36 843.17 174.18 799.45 242.07 865.04 221.36" fill="#fdfdfc"/><polygon points="865.04 561.97 812.1 551.62 845.48 576.93 865.04 561.97" fill="#e5ecf4"/><polygon points="800.6 521.7 812.1 551.62 865.04 561.97 800.6 521.7" fill="#e7f4f4"/><polygon points="800.6 521.7 865.04 561.97 829.37 468.76 800.6 521.7" fill="#edf5f7"/><polygon points="862.74 871.52 856.98 914.1 871.94 892.23 862.74 871.52" fill="#494476"/><polygon points="800.6 1129.28 804.05 1186.82 874.24 1166.11 800.6 1129.28" fill="#b7b9bb"/><polygon points="875.39 671.29 828.21 644.83 792.54 743.79 875.39 671.29" fill="#92b1e3"/><polygon points="854.68 650.58 828.21 644.83 875.39 671.29 854.68 650.58" fill="#9bc4d8"/><polygon points="875.39 671.29 792.54 743.79 812.1 759.9 875.39 671.29" fill="#749dd7"/><polygon points="836.27 767.95 875.39 671.29 812.1 759.9 836.27 767.95" fill="#7795d3"/><polygon points="875.39 438.85 835.12 411.23 854.68 452.65 875.39 438.85" fill="#f8fefe"/><polygon points="804.05 1186.82 803.7 1200 874.9 1200 876.54 1198.33 804.05 1186.82" fill="#54567c"/><polygon points="804.05 1186.82 876.54 1198.33 874.24 1166.11 804.05 1186.82" fill="#56444f"/><polygon points="854.68 650.58 875.39 671.29 877.7 659.78 854.68 650.58" fill="#2b2737"/><polygon points="847.78 628.72 854.68 650.58 877.7 659.78 847.78 628.72" fill="#0a0c18"/><polygon points="845.48 576.93 853.53 608 877.7 568.88 845.48 576.93" fill="#9ebdda"/><polygon points="845.48 576.93 877.7 568.88 865.04 561.97 845.48 576.93" fill="#c2cae8"/><polygon points="836.27 767.95 839.72 782.91 881.15 758.75 836.27 767.95" fill="#4b3252"/><polygon points="881.15 758.75 875.39 671.29 836.27 767.95 881.15 758.75" fill="#829ccc"/><polygon points="856.98 914.1 883.45 919.85 871.94 892.23 856.98 914.1" fill="#687bae"/><polygon points="844.32 827.79 885.75 794.42 839.72 801.33 844.32 827.79" fill="#b392b2"/><polygon points="839.72 801.33 885.75 794.42 839.72 782.91 839.72 801.33" fill="#bc96b8"/><polygon points="839.72 782.91 885.75 794.42 881.15 758.75 839.72 782.91" fill="#843c60"/><polygon points="844.32 827.79 862.74 871.52 885.75 794.42 844.32 827.79" fill="#bc8db3"/><polygon points="883.45 919.85 888.05 916.4 871.94 892.23 883.45 919.85" fill="#a39dc5"/><polygon points="865.04 561.97 877.7 568.88 892.65 566.58 865.04 561.97" fill="#e4e5e4"/><polygon points="883.45 919.85 892.65 926.75 888.05 916.4 883.45 919.85" fill="#64739e"/><polygon points="751.12 1015.36 892.65 926.75 856.98 914.1 751.12 1015.36" fill="#939dbd"/><polygon points="856.98 914.1 892.65 926.75 883.45 919.85 856.98 914.1" fill="#94a0cd"/><polygon points="751.12 1015.36 800.6 1129.28 892.65 926.75 751.12 1015.36" fill="#a6b4c6"/><polygon points="877.7 568.88 853.53 608 896.11 601.1 877.7 568.88" fill="#435ba0"/><polygon points="877.7 568.88 896.11 601.1 892.65 566.58 877.7 568.88" fill="#304173"/><polygon points="877.7 659.78 875.39 671.29 897.26 665.54 877.7 659.78" fill="#151817"/><polygon points="900.71 742.64 875.39 671.29 881.15 758.75 900.71 742.64" fill="#5b6893"/><polygon points="881.15 758.75 885.75 794.42 900.71 742.64 881.15 758.75" fill="#4b2848"/><polygon points="900.71 613.76 847.78 628.72 877.7 659.78 900.71 613.76" fill="#4e5669"/><polygon points="900.71 613.76 853.53 608 847.78 628.72 900.71 613.76" fill="#1f2b48"/><polygon points="896.11 601.1 853.53 608 900.71 613.76 896.11 601.1" fill="#213056"/><polygon points="900.71 266.24 865.04 221.36 825.91 289.25 900.71 266.24" fill="#fafefc"/><polygon points="898.41 234.01 865.04 221.36 900.71 266.24 898.41 234.01" fill="#eff6f9"/><polygon points="897.26 665.54 875.39 671.29 903.01 689.7 897.26 665.54" fill="#0f1027"/><polygon points="903.01 689.7 875.39 671.29 900.71 742.64 903.01 689.7" fill="#60678e"/><polygon points="903.01 311.11 825.91 289.25 833.97 339.88 903.01 311.11" fill="#f8f9fb"/><polygon points="903.01 311.11 900.71 266.24 825.91 289.25 903.01 311.11" fill="#f0f5f9"/><polygon points="877.7 659.78 897.26 665.54 907.62 650.58 877.7 659.78" fill="#6892d2"/><polygon points="911.07 632.17 900.71 613.76 877.7 659.78 911.07 632.17" fill="#0a0915"/><polygon points="911.07 632.17 877.7 659.78 907.62 650.58 911.07 632.17" fill="#0a060a"/><polygon points="912.22 519.4 875.39 438.85 854.68 452.65 912.22 519.4" fill="#f9fcf8"/><polygon points="912.22 519.4 865.04 561.97 892.65 566.58 912.22 519.4" fill="#c4c5cf"/><polygon points="854.68 452.65 829.37 468.76 912.22 519.4 854.68 452.65" fill="#f8f9f7"/><polygon points="829.37 468.76 865.04 561.97 912.22 519.4 829.37 468.76" fill="#fcfbfd"/><polygon points="874.9 1200 877.28 1200 876.54 1198.33 874.9 1200" fill="#444255"/><polygon points="885.75 794.42 916.82 805.93 900.71 742.64 885.75 794.42" fill="#723657"/><polygon points="885.75 794.42 862.74 871.52 916.82 805.93 885.75 794.42" fill="#c7a1bf"/><polygon points="875.39 438.85 917.97 357.14 835.12 411.23 875.39 438.85" fill="#f5f8f7"/><polygon points="917.97 357.14 833.97 339.88 835.12 411.23 917.97 357.14" fill="#fdfdfd"/><polygon points="917.97 357.14 903.01 311.11 833.97 339.88 917.97 357.14" fill="#fefefe"/><polygon points="921.42 173.03 843.17 174.18 865.04 221.36 921.42 173.03" fill="#fcfefd"/><polygon points="921.42 173.03 858.13 137.35 843.17 174.18 921.42 173.03" fill="#f3f8f4"/><polygon points="908.76 138.5 858.13 137.35 921.42 173.03 908.76 138.5" fill="#bccedb"/><polygon points="898.41 234.01 921.42 173.03 865.04 221.36 898.41 234.01" fill="#e4f0f2"/><polygon points="916.82 805.93 923.73 735.73 900.71 742.64 916.82 805.93" fill="#3d1b3b"/><polygon points="903.01 689.7 900.71 742.64 924.88 701.21 903.01 689.7" fill="#515e87"/><polygon points="900.71 742.64 923.73 735.73 924.88 701.21 900.71 742.64" fill="#7189ad"/><polygon points="892.65 926.75 926.03 940.56 888.05 916.4 892.65 926.75" fill="#ada1c0"/><polygon points="800.6 1129.28 874.24 1166.11 926.03 940.56 800.6 1129.28" fill="#f5f6f1"/><polygon points="892.65 926.75 800.6 1129.28 926.03 940.56 892.65 926.75" fill="#a5b0cd"/><polygon points="896.11 601.1 900.71 613.76 927.18 602.25 896.11 601.1" fill="#212043"/><polygon points="892.65 566.58 896.11 601.1 927.18 602.25 892.65 566.58" fill="#4f66a4"/><polygon points="927.18 602.25 900.71 613.76 911.07 632.17 927.18 602.25" fill="#202045"/><polygon points="924.88 701.21 923.73 735.73 932.93 718.47 924.88 701.21" fill="#7174a7"/><polygon points="934.08 566.58 912.22 519.4 892.65 566.58 934.08 566.58" fill="#bbbbda"/><polygon points="892.65 566.58 927.18 602.25 934.08 566.58 892.65 566.58" fill="#474e82"/><polygon points="934.08 427.34 875.39 438.85 912.22 519.4 934.08 427.34" fill="#deecf1"/><polygon points="935.23 393.97 917.97 357.14 875.39 438.85 935.23 393.97" fill="#f1f6f8"/><polygon points="935.23 393.97 875.39 438.85 934.08 427.34 935.23 393.97" fill="#f2fcfd"/><polygon points="862.74 871.52 935.23 830.09 916.82 805.93 862.74 871.52" fill="#e1b3cd"/><polygon points="935.23 665.54 911.07 632.17 907.62 650.58 935.23 665.54" fill="#1b1d3d"/><polygon points="935.23 665.54 903.01 689.7 924.88 701.21 935.23 665.54" fill="#10111b"/><polygon points="897.26 665.54 903.01 689.7 935.23 665.54 897.26 665.54" fill="#272832"/><polygon points="907.62 650.58 897.26 665.54 935.23 665.54 907.62 650.58" fill="#2b2d40"/><polygon points="888.05 916.4 938.68 877.27 871.94 892.23 888.05 916.4" fill="#ddb7c9"/><polygon points="871.94 892.23 938.68 877.27 862.74 871.52 871.94 892.23" fill="#f2c6db"/><polygon points="862.74 871.52 938.68 877.27 935.23 830.09 862.74 871.52" fill="#daadc4"/><polygon points="888.05 916.4 926.03 940.56 938.68 877.27 888.05 916.4" fill="#a98297"/><polygon points="874.24 1166.11 938.68 1154.6 926.03 940.56 874.24 1166.11" fill="#fdfdfc"/><polygon points="874.24 1166.11 876.54 1198.33 938.68 1154.6 874.24 1166.11" fill="#cbcad3"/><polygon points="939.84 135.05 908.76 138.5 921.42 173.03 939.84 135.05" fill="#f1f5f3"/><polygon points="940.99 209.85 939.84 135.05 921.42 173.03 940.99 209.85" fill="#435a97"/><polygon points="900.71 266.24 940.99 209.85 898.41 234.01 900.71 266.24" fill="#1b203d"/><polygon points="940.99 209.85 921.42 173.03 898.41 234.01 940.99 209.85" fill="#171b47"/><polygon points="923.73 735.73 942.14 734.58 932.93 718.47 923.73 735.73" fill="#464d6b"/><polygon points="932.93 718.47 942.14 734.58 942.14 703.51 932.93 718.47" fill="#37395c"/><polygon points="932.93 718.47 942.14 703.51 924.88 701.21 932.93 718.47" fill="#040614"/><polygon points="942.14 703.51 935.23 665.54 924.88 701.21 942.14 703.51" fill="#08091b"/><polygon points="926.03 940.56 945.59 934.81 938.68 877.27 926.03 940.56" fill="#c499b4"/><polygon points="935.23 830.09 949.04 803.63 916.82 805.93 935.23 830.09" fill="#804868"/><polygon points="916.82 805.93 949.04 803.63 923.73 735.73 916.82 805.93" fill="#502e52"/><polygon points="923.73 735.73 949.04 803.63 942.14 734.58 923.73 735.73" fill="#2b1737"/><polygon points="960.55 690.86 935.23 665.54 942.14 703.51 960.55 690.86" fill="#080715"/><polygon points="911.07 632.17 960.55 637.92 927.18 602.25 911.07 632.17" fill="#373c55"/><polygon points="935.23 665.54 960.55 637.92 911.07 632.17 935.23 665.54" fill="#313a5b"/><polygon points="961.7 436.54 935.23 393.97 934.08 427.34 961.7 436.54" fill="#73799a"/><polygon points="960.55 637.92 964 616.06 927.18 602.25 960.55 637.92" fill="#1d1936"/><polygon points="960.55 690.86 964 654.03 935.23 665.54 960.55 690.86" fill="#1d1d3a"/><polygon points="964 654.03 960.55 637.92 935.23 665.54 964 654.03" fill="#1e2244"/><polygon points="927.18 602.25 966.3 565.42 934.08 566.58 927.18 602.25" fill="#5d679e"/><polygon points="964 616.06 966.3 565.42 927.18 602.25 964 616.06" fill="#5e6ca0"/><polygon points="966.3 565.42 912.22 519.4 934.08 566.58 966.3 565.42" fill="#f9f6f8"/><polygon points="876.54 1198.33 877.28 1200 966.77 1200 968.6 1197.18 876.54 1198.33" fill="#a28e98"/><polygon points="876.54 1198.33 968.6 1197.18 938.68 1154.6 876.54 1198.33" fill="#c1b5ba"/><polygon points="942.14 734.58 949.04 803.63 969.75 736.88 942.14 734.58" fill="#432d4d"/><polygon points="942.14 734.58 969.75 736.88 942.14 703.51 942.14 734.58" fill="#677da4"/><polygon points="942.14 703.51 969.75 736.88 960.55 690.86 942.14 703.51" fill="#8995b5"/><polygon points="945.59 934.81 970.9 925.6 938.68 877.27 945.59 934.81" fill="#ae6a88"/><polygon points="974.36 663.24 964 654.03 960.55 690.86 974.36 663.24" fill="#171930"/><polygon points="978.96 602.25 966.3 565.42 964 616.06 978.96 602.25" fill="#405696"/><polygon points="912.22 519.4 980.11 464.16 934.08 427.34 912.22 519.4" fill="#f6faf9"/><polygon points="934.08 427.34 980.11 464.16 961.7 436.54 934.08 427.34" fill="#cfd6e5"/><polygon points="949.04 803.63 980.11 792.12 969.75 736.88 949.04 803.63" fill="#975371"/><polygon points="982.41 217.9 939.84 135.05 940.99 209.85 982.41 217.9" fill="#324482"/><polygon points="982.41 217.9 940.99 209.85 900.71 266.24 982.41 217.9" fill="#282c58"/><polygon points="961.7 436.54 980.11 464.16 985.86 428.49 961.7 436.54" fill="#272d46"/><polygon points="938.68 1154.6 968.6 1197.18 987.01 1133.89 938.68 1154.6" fill="#bcbbbd"/><polygon points="938.68 1154.6 987.01 1133.89 926.03 940.56 938.68 1154.6" fill="#edf1f2"/><polygon points="969.75 736.88 988.17 674.75 960.55 690.86 969.75 736.88" fill="#64729b"/><polygon points="988.17 674.75 974.36 663.24 960.55 690.86 988.17 674.75" fill="#1a1928"/><polygon points="978.96 602.25 990.47 567.73 966.3 565.42 978.96 602.25" fill="#95b4d8"/><polygon points="970.9 925.6 990.47 910.64 938.68 877.27 970.9 925.6" fill="#bd85a0"/><polygon points="993.92 393.97 935.23 393.97 961.7 436.54 993.92 393.97" fill="#02000b"/><polygon points="985.86 428.49 993.92 393.97 961.7 436.54 985.86 428.49" fill="#03020b"/><polygon points="993.92 393.97 917.97 357.14 935.23 393.97 993.92 393.97" fill="#060721"/><polygon points="985.86 428.49 980.11 464.16 995.07 429.64 985.86 428.49" fill="#0f0e1b"/><polygon points="969.75 736.88 980.11 792.12 997.37 755.3 969.75 736.88" fill="#442b50"/><polygon points="997.37 755.3 988.17 674.75 969.75 736.88 997.37 755.3" fill="#88a8d1"/><polygon points="988.17 674.75 1003.13 652.88 974.36 663.24 988.17 674.75" fill="#292a3f"/><polygon points="964 654.03 1003.13 652.88 960.55 637.92 964 654.03" fill="#080b12"/><polygon points="974.36 663.24 1003.13 652.88 964 654.03 974.36 663.24" fill="#b4cee5"/><polygon points="1005.43 588.44 990.47 567.73 978.96 602.25 1005.43 588.44" fill="#9fbbee"/><polygon points="1005.43 419.28 993.92 393.97 985.86 428.49 1005.43 419.28" fill="#00020f"/><polygon points="1005.43 419.28 985.86 428.49 995.07 429.64 1005.43 419.28" fill="#0f131e"/><polygon points="990.47 567.73 1006.58 495.23 966.3 565.42 990.47 567.73" fill="#f8f4f5"/><polygon points="966.3 565.42 1006.58 495.23 912.22 519.4 966.3 565.42" fill="#eae7e4"/><polygon points="912.22 519.4 1006.58 495.23 980.11 464.16 912.22 519.4" fill="#f9fdfd"/><polygon points="1007.73 248.97 900.71 266.24 903.01 311.11 1007.73 248.97" fill="#0a0918"/><polygon points="1007.73 248.97 982.41 217.9 900.71 266.24 1007.73 248.97" fill="#2c3263"/><polygon points="997.37 755.3 980.11 792.12 1008.88 771.41 997.37 755.3" fill="#643758"/><polygon points="990.47 910.64 1008.88 885.33 938.68 877.27 990.47 910.64" fill="#bc819b"/><polygon points="1010.03 609.15 1005.43 588.44 978.96 602.25 1010.03 609.15" fill="#40517d"/><polygon points="1011.18 632.17 1010.03 609.15 978.96 602.25 1011.18 632.17" fill="#5b6c97"/><polygon points="964 616.06 1011.18 632.17 978.96 602.25 964 616.06" fill="#20263e"/><polygon points="960.55 637.92 1011.18 632.17 964 616.06 960.55 637.92" fill="#0d111a"/><polygon points="1003.13 652.88 1011.18 632.17 960.55 637.92 1003.13 652.88" fill="#302f41"/><polygon points="1011.18 140.81 939.84 135.05 982.41 217.9 1011.18 140.81" fill="#3a578d"/><polygon points="980.11 792.12 1012.33 793.27 1008.88 771.41 980.11 792.12" fill="#965473"/><polygon points="995.07 429.64 1012.33 442.3 1005.43 419.28 995.07 429.64" fill="#474e69"/><polygon points="980.11 464.16 1012.33 442.3 995.07 429.64 980.11 464.16" fill="#0b0a1b"/><polygon points="980.11 464.16 1006.58 495.23 1012.33 442.3 980.11 464.16" fill="#0b0a17"/><polygon points="938.68 877.27 1008.88 885.33 1013.48 858.86 938.68 877.27" fill="#cca4bf"/><polygon points="1008.88 885.33 1013.48 874.97 1013.48 858.86 1008.88 885.33" fill="#95b3c7"/><polygon points="938.68 877.27 1013.48 858.86 935.23 830.09 938.68 877.27" fill="#d9acc7"/><polygon points="949.04 803.63 1013.48 832.39 980.11 792.12 949.04 803.63" fill="#daaec7"/><polygon points="935.23 830.09 1013.48 832.39 949.04 803.63 935.23 830.09" fill="#deb3cf"/><polygon points="1013.48 858.86 1013.48 832.39 935.23 830.09 1013.48 858.86" fill="#e2b3d0"/><polygon points="1013.48 364.05 917.97 357.14 993.92 393.97 1013.48 364.05" fill="#080917"/><polygon points="1013.48 364.05 903.01 311.11 917.97 357.14 1013.48 364.05" fill="#020615"/><polygon points="980.11 792.12 1013.48 832.39 1014.63 810.53 980.11 792.12" fill="#a86487"/><polygon points="1014.63 802.48 1012.33 793.27 980.11 792.12 1014.63 802.48" fill="#ba7492"/><polygon points="1014.63 810.53 1014.63 802.48 980.11 792.12 1014.63 810.53" fill="#b6789d"/><polygon points="1014.63 391.66 993.92 393.97 1005.43 419.28 1014.63 391.66" fill="#0f1325"/><polygon points="1014.63 391.66 1013.48 364.05 993.92 393.97 1014.63 391.66" fill="#060610"/><polygon points="1008.88 771.41 1012.33 793.27 1020.39 763.35 1008.88 771.41" fill="#46477a"/><polygon points="1020.39 763.35 997.37 755.3 1008.88 771.41 1020.39 763.35" fill="#40274e"/><polygon points="1022.69 413.53 1014.63 391.66 1005.43 419.28 1022.69 413.53" fill="#330b0a"/><polygon points="1012.33 442.3 1024.99 436.54 1005.43 419.28 1012.33 442.3" fill="#282e4a"/><polygon points="1005.43 419.28 1024.99 436.54 1022.69 413.53 1005.43 419.28" fill="#2c0b0a"/><polygon points="1013.48 874.97 1029.59 846.2 1013.48 858.86 1013.48 874.97" fill="#a6b5d2"/><polygon points="1013.48 858.86 1029.59 846.2 1013.48 832.39 1013.48 858.86" fill="#454672"/><polygon points="1031.89 289.25 1007.73 248.97 903.01 311.11 1031.89 289.25" fill="#12152f"/><polygon points="1031.89 289.25 903.01 311.11 1013.48 364.05 1031.89 289.25" fill="#0b1024"/><polygon points="1012.33 793.27 1033.04 764.5 1020.39 763.35 1012.33 793.27" fill="#3f4c89"/><polygon points="990.47 567.73 1034.19 526.3 1006.58 495.23 990.47 567.73" fill="#f9f6f8"/><polygon points="1022.69 413.53 1024.99 436.54 1034.19 421.58 1022.69 413.53" fill="#af5f44"/><polygon points="1020.39 763.35 1033.04 764.5 1035.35 761.05 1020.39 763.35" fill="#3e3c62"/><polygon points="1035.35 761.05 997.37 755.3 1020.39 763.35 1035.35 761.05" fill="#7981a2"/><polygon points="1037.65 380.16 1013.48 364.05 1014.63 391.66 1037.65 380.16" fill="#15172d"/><polygon points="1036.5 128.15 1011.18 140.81 1037.65 179.93 1036.5 128.15" fill="#2c294b"/><polygon points="1037.65 179.93 982.41 217.9 1007.73 248.97 1037.65 179.93" fill="#2e3a66"/><polygon points="1037.65 179.93 1011.18 140.81 982.41 217.9 1037.65 179.93" fill="#5c7ab8"/><polygon points="1014.63 810.53 1039.95 816.28 1014.63 802.48 1014.63 810.53" fill="#cad3dd"/><polygon points="1013.48 832.39 1039.95 816.28 1014.63 810.53 1013.48 832.39" fill="#bec7d0"/><polygon points="1013.48 832.39 1029.59 846.2 1039.95 816.28 1013.48 832.39" fill="#cddeeb"/><polygon points="926.03 940.56 1039.95 1095.91 945.59 934.81 926.03 940.56" fill="#eeece1"/><polygon points="987.01 1133.89 1039.95 1095.91 926.03 940.56 987.01 1133.89" fill="#706874"/><polygon points="945.59 934.81 1039.95 1095.91 970.9 925.6 945.59 934.81" fill="#dae2e8"/><polygon points="1041.1 400.87 1022.69 413.53 1034.19 421.58 1041.1 400.87" fill="#05060a"/><polygon points="1041.1 400.87 1014.63 391.66 1022.69 413.53 1041.1 400.87" fill="#89acd9"/><polygon points="966.77 1200 972.47 1200 968.6 1197.18 966.77 1200" fill="#d6c7c4"/><polygon points="1006.58 495.23 1034.19 526.3 1042.25 448.05 1006.58 495.23" fill="#2c2847"/><polygon points="1006.58 495.23 1042.25 448.05 1012.33 442.3 1006.58 495.23" fill="#0a0612"/><polygon points="1012.33 442.3 1042.25 448.05 1024.99 436.54 1012.33 442.3" fill="#535586"/><polygon points="1037.65 380.16 1014.63 391.66 1042.25 392.81 1037.65 380.16" fill="#000115"/><polygon points="1042.25 392.81 1014.63 391.66 1041.1 400.87 1042.25 392.81" fill="#294993"/><polygon points="1024.99 436.54 1044.55 438.85 1034.19 421.58 1024.99 436.54" fill="#703728"/><polygon points="1024.99 436.54 1042.25 448.05 1044.55 438.85 1024.99 436.54" fill="#454a70"/><polygon points="1049.15 320.32 1031.89 289.25 1013.48 364.05 1049.15 320.32" fill="#121629"/><polygon points="1005.43 588.44 1051.46 568.88 990.47 567.73 1005.43 588.44" fill="#f0f2ed"/><polygon points="1051.46 568.88 1034.19 526.3 990.47 567.73 1051.46 568.88" fill="#e4e5e4"/><polygon points="1010.03 609.15 1051.46 568.88 1005.43 588.44 1010.03 609.15" fill="#e4e7e8"/><polygon points="1051.46 350.24 1013.48 364.05 1037.65 380.16 1051.46 350.24" fill="#0f0f18"/><polygon points="1049.15 320.32 1013.48 364.05 1051.46 350.24 1049.15 320.32" fill="#20253e"/><polygon points="1034.19 421.58 1052.61 421.58 1041.1 400.87 1034.19 421.58" fill="#0a050a"/><polygon points="1044.55 438.85 1052.61 421.58 1034.19 421.58 1044.55 438.85" fill="#af502d"/><polygon points="1012.33 793.27 1054.91 795.57 1033.04 764.5 1012.33 793.27" fill="#c3c8e1"/><polygon points="1014.63 802.48 1054.91 795.57 1012.33 793.27 1014.63 802.48" fill="#a4b0c4"/><polygon points="1039.95 816.28 1054.91 795.57 1014.63 802.48 1039.95 816.28" fill="#c7d3e4"/><polygon points="1056.06 380.16 1037.65 380.16 1042.25 392.81 1056.06 380.16" fill="#1d2121"/><polygon points="1056.06 380.16 1051.46 350.24 1037.65 380.16 1056.06 380.16" fill="#0f1024"/><polygon points="1042.25 448.05 1058.36 435.39 1044.55 438.85 1042.25 448.05" fill="#4f527e"/><polygon points="1044.55 438.85 1058.36 435.39 1052.61 421.58 1044.55 438.85" fill="#57423f"/><polygon points="1060.66 771.41 1060.66 743.79 1035.35 761.05 1060.66 771.41" fill="#5a6c90"/><polygon points="1033.04 764.5 1060.66 771.41 1035.35 761.05 1033.04 764.5" fill="#adbfd7"/><polygon points="1033.04 764.5 1054.91 795.57 1060.66 771.41 1033.04 764.5" fill="#9fb1d7"/><polygon points="1061.81 698.91 1003.13 652.88 988.17 674.75 1061.81 698.91" fill="#b5c2cd"/><polygon points="1035.35 761.05 1061.81 698.91 997.37 755.3 1035.35 761.05" fill="#8aa4c6"/><polygon points="1060.66 743.79 1061.81 698.91 1035.35 761.05 1060.66 743.79" fill="#6d7e96"/><polygon points="997.37 755.3 1061.81 698.91 988.17 674.75 997.37 755.3" fill="#8ca5c7"/><polygon points="1052.61 421.58 1065.27 402.02 1041.1 400.87 1052.61 421.58" fill="#020108"/><polygon points="1041.1 400.87 1065.27 402.02 1042.25 392.81 1041.1 400.87" fill="#1c3163"/><polygon points="1065.27 402.02 1056.06 380.16 1042.25 392.81 1065.27 402.02" fill="#080917"/><polygon points="1034.19 526.3 1066.42 440 1042.25 448.05 1034.19 526.3" fill="#242443"/><polygon points="1042.25 448.05 1066.42 440 1058.36 435.39 1042.25 448.05" fill="#7c8eba"/><polygon points="1011.18 632.17 1067.57 616.06 1010.03 609.15 1011.18 632.17" fill="#e1e1d6"/><polygon points="1067.57 616.06 1051.46 568.88 1010.03 609.15 1067.57 616.06" fill="#f0f1f3"/><polygon points="1067.57 654.03 1067.57 616.06 1011.18 632.17 1067.57 654.03" fill="#e7f1ed"/><polygon points="1003.13 652.88 1067.57 654.03 1011.18 632.17 1003.13 652.88" fill="#eff3f4"/><polygon points="1061.81 698.91 1067.57 654.03 1003.13 652.88 1061.81 698.91" fill="#d6d3c5"/><polygon points="1029.59 846.2 1068.72 822.04 1039.95 816.28 1029.59 846.2" fill="#4c5783"/><polygon points="1039.95 816.28 1068.72 822.04 1054.91 795.57 1039.95 816.28" fill="#1b203e"/><polygon points="1069.87 137.35 1036.5 128.15 1037.65 179.93 1069.87 137.35" fill="#2d4067"/><polygon points="1045.7 100.53 1036.5 128.15 1069.87 137.35 1045.7 100.53" fill="#1b1c2b"/><polygon points="1052.61 421.58 1071.02 427.34 1065.27 402.02 1052.61 421.58" fill="#2b191d"/><polygon points="1058.36 435.39 1071.02 427.34 1052.61 421.58 1058.36 435.39" fill="#050303"/><polygon points="1058.36 435.39 1066.42 440 1071.02 427.34 1058.36 435.39" fill="#93a7d0"/><polygon points="1039.95 1095.91 1072.17 1062.54 970.9 925.6 1039.95 1095.91" fill="#f0f0df"/><polygon points="1073.32 387.06 1051.46 350.24 1056.06 380.16 1073.32 387.06" fill="#1b1a3e"/><polygon points="1065.27 402.02 1073.32 387.06 1056.06 380.16 1065.27 402.02" fill="#0d1527"/><polygon points="1069.87 137.35 1037.65 179.93 1076.77 225.96 1069.87 137.35" fill="#2f2e54"/><polygon points="1076.77 225.96 1007.73 248.97 1031.89 289.25 1076.77 225.96" fill="#4d5ea4"/><polygon points="1076.77 225.96 1037.65 179.93 1007.73 248.97 1076.77 225.96" fill="#41548e"/><polygon points="1071.02 427.34 1080.22 418.13 1065.27 402.02 1071.02 427.34" fill="#020000"/><polygon points="1080.22 406.62 1073.32 387.06 1065.27 402.02 1080.22 406.62" fill="#0f122b"/><polygon points="1080.22 418.13 1080.22 406.62 1065.27 402.02 1080.22 418.13" fill="#0d0c1b"/><polygon points="1054.91 795.57 1080.22 782.91 1060.66 771.41 1054.91 795.57" fill="#0f1027"/><polygon points="1054.91 795.57 1068.72 822.04 1080.22 782.91 1054.91 795.57" fill="#202443"/><polygon points="1060.66 771.41 1080.22 782.91 1060.66 743.79 1060.66 771.41" fill="#181529"/><polygon points="1066.42 440 1082.53 427.34 1071.02 427.34 1066.42 440" fill="#6b7b98"/><polygon points="1071.02 427.34 1082.53 427.34 1080.22 418.13 1071.02 427.34" fill="#7186b2"/><polygon points="1039.95 1095.91 1089.43 1141.94 1072.17 1062.54 1039.95 1095.91" fill="#dcd2c9"/><polygon points="987.01 1133.89 1089.43 1141.94 1039.95 1095.91 987.01 1133.89" fill="#cdc4c5"/><polygon points="968.6 1197.18 1089.43 1141.94 987.01 1133.89 968.6 1197.18" fill="#ccc4ba"/><polygon points="968.6 1197.18 972.47 1200 1063.49 1200 1089.43 1141.94 968.6 1197.18" fill="#d3c4b4"/><polygon points="1094.03 400.87 1073.32 387.06 1080.22 406.62 1094.03 400.87" fill="#0d133d"/><polygon points="1060.66 743.79 1098.64 731.13 1061.81 698.91 1060.66 743.79" fill="#333d67"/><polygon points="1080.22 782.91 1098.64 731.13 1060.66 743.79 1080.22 782.91" fill="#30395f"/><polygon points="1082.53 427.34 1099.79 415.83 1080.22 418.13 1082.53 427.34" fill="#151b32"/><polygon points="1080.22 418.13 1099.79 415.83 1080.22 406.62 1080.22 418.13" fill="#667297"/><polygon points="1080.22 406.62 1099.79 415.83 1094.03 400.87 1080.22 406.62" fill="#5a6082"/><polygon points="970.9 925.6 1105.54 1010.76 990.47 910.64 970.9 925.6" fill="#aba1b8"/><polygon points="1072.17 1062.54 1105.54 1010.76 970.9 925.6 1072.17 1062.54" fill="#eeeeec"/><polygon points="1112.44 109.73 1045.7 100.53 1069.87 137.35 1112.44 109.73" fill="#0a0318"/><polygon points="1008.88 885.33 1113.6 955.52 1013.48 874.97 1008.88 885.33" fill="#f3eee2"/><polygon points="990.47 910.64 1113.6 955.52 1008.88 885.33 990.47 910.64" fill="#eff5ee"/><polygon points="1105.54 1010.76 1113.6 955.52 990.47 910.64 1105.54 1010.76" fill="#edefe9"/><polygon points="1013.48 874.97 1113.6 955.52 1029.59 846.2 1013.48 874.97" fill="#f4f5f5"/><polygon points="1029.59 846.2 1113.6 955.52 1068.72 822.04 1029.59 846.2" fill="#928890"/><polygon points="1114.75 678.2 1067.57 654.03 1061.81 698.91 1114.75 678.2" fill="#404c75"/><polygon points="1098.64 731.13 1114.75 678.2 1061.81 698.91 1098.64 731.13" fill="#2d3558"/><polygon points="1118.2 298.45 1049.15 320.32 1051.46 350.24 1118.2 298.45" fill="#3d5090"/><polygon points="1118.2 298.45 1031.89 289.25 1049.15 320.32 1118.2 298.45" fill="#677cc1"/><polygon points="1121.65 270.84 1076.77 225.96 1031.89 289.25 1121.65 270.84" fill="#41588d"/><polygon points="1121.65 270.84 1031.89 289.25 1118.2 298.45 1121.65 270.84" fill="#425289"/><polygon points="1123.95 159.22 1069.87 137.35 1076.77 225.96 1123.95 159.22" fill="#20274a"/><polygon points="1123.95 159.22 1112.44 109.73 1069.87 137.35 1123.95 159.22" fill="#0b0a10"/><polygon points="1068.72 822.04 1126.25 816.28 1080.22 782.91 1068.72 822.04" fill="#1e2441"/><polygon points="1068.72 822.04 1113.6 955.52 1126.25 816.28 1068.72 822.04" fill="#fdfcf5"/><polygon points="1067.57 654.03 1129.71 618.36 1067.57 616.06 1067.57 654.03" fill="#30385e"/><polygon points="1114.75 678.2 1129.71 618.36 1067.57 654.03 1114.75 678.2" fill="#0f152c"/><polygon points="1067.57 616.06 1129.71 618.36 1051.46 568.88 1067.57 616.06" fill="#3b426e"/><polygon points="1094.03 400.87 1130.86 361.75 1073.32 387.06 1094.03 400.87" fill="#435384"/><polygon points="1073.32 387.06 1130.86 361.75 1051.46 350.24 1073.32 387.06" fill="#4b5288"/><polygon points="1051.46 350.24 1130.86 361.75 1118.2 298.45 1051.46 350.24" fill="#424e86"/><polygon points="1099.79 415.83 1130.86 361.75 1094.03 400.87 1099.79 415.83" fill="#465381"/><polygon points="1063.49 1200 1129.39 1200 1089.43 1141.94 1063.49 1200" fill="#eeeeec"/><polygon points="1080.22 782.91 1151.57 779.46 1098.64 731.13 1080.22 782.91" fill="#020625"/><polygon points="1126.25 816.28 1151.57 779.46 1080.22 782.91 1126.25 816.28" fill="#181d3e"/><polygon points="1153.87 420.43 1130.86 361.75 1099.79 415.83 1153.87 420.43" fill="#212c57"/><polygon points="1129.71 618.36 1158.47 557.37 1051.46 568.88 1129.71 618.36" fill="#363e67"/><polygon points="1158.47 207.55 1076.77 225.96 1121.65 270.84 1158.47 207.55" fill="#231e37"/><polygon points="1158.47 207.55 1123.95 159.22 1076.77 225.96 1158.47 207.55" fill="#181e44"/><polygon points="1066.42 440 1159.63 496.38 1082.53 427.34 1066.42 440" fill="#3f3d5e"/><polygon points="1051.46 568.88 1159.63 496.38 1034.19 526.3 1051.46 568.88" fill="#252741"/><polygon points="1158.47 557.37 1159.63 496.38 1051.46 568.88 1158.47 557.37" fill="#354171"/><polygon points="1034.19 526.3 1159.63 496.38 1066.42 440 1034.19 526.3" fill="#100f2c"/><polygon points="1082.53 427.34 1159.63 496.38 1099.79 415.83 1082.53 427.34" fill="#506185"/><polygon points="1099.79 415.83 1159.63 496.38 1153.87 420.43 1099.79 415.83" fill="#020625"/><polygon points="1098.64 731.13 1169.98 742.64 1114.75 678.2 1098.64 731.13" fill="#22274a"/><polygon points="1151.57 779.46 1169.98 742.64 1098.64 731.13 1151.57 779.46" fill="#121b37"/><polygon points="1175.73 257.03 1158.47 207.55 1121.65 270.84 1175.73 257.03" fill="#0f1337"/><polygon points="1176.89 169.57 1123.95 159.22 1158.47 207.55 1176.89 169.57" fill="#08050f"/><polygon points="1181.49 311.11 1121.65 270.84 1118.2 298.45 1181.49 311.11" fill="#314374"/><polygon points="1181.49 311.11 1175.73 257.03 1121.65 270.84 1181.49 311.11" fill="#222037"/><polygon points="1130.86 361.75 1181.49 311.11 1118.2 298.45 1130.86 361.75" fill="#212140"/><polygon points="1181.49 139.65 1112.44 109.73 1123.95 159.22 1181.49 139.65" fill="#192640"/><polygon points="1176.89 169.57 1181.49 139.65 1123.95 159.22 1176.89 169.57" fill="#252335"/><polygon points="1113.6 955.52 1193 862.31 1126.25 816.28 1113.6 955.52" fill="#fdfdfb"/><polygon points="1126.25 816.28 1193 862.31 1151.57 779.46 1126.25 816.28" fill="#e1edee"/><polygon points="1169.98 742.64 1195.3 704.66 1114.75 678.2 1169.98 742.64" fill="#1d1b37"/><polygon points="1197.6 278.89 1175.73 257.03 1181.49 311.11 1197.6 278.89" fill="#2c3154"/><polygon points="1129.39 1200 1197.58 1200 1089.43 1141.94 1129.39 1200" fill="#f1f1e5"/><polygon points="1130.86 361.75 1199.9 365.2 1181.49 311.11 1130.86 361.75" fill="#151531"/><polygon points="1153.87 420.43 1201.05 392.81 1130.86 361.75 1153.87 420.43" fill="#17163d"/><polygon points="1201.05 392.81 1199.9 365.2 1130.86 361.75 1201.05 392.81" fill="#0f122c"/><polygon points="1158.47 557.37 1203.35 537.81 1159.63 496.38 1158.47 557.37" fill="#080914"/><polygon points="1089.43 1141.94 1197.58 1200 1198.85 1200 1211.41 1117.78 1089.43 1141.94" fill="#fffffd"/><polygon points="1089.43 1141.94 1211.41 1117.78 1072.17 1062.54 1089.43 1141.94" fill="#fefefc"/><polygon points="1072.17 1062.54 1211.41 1117.78 1105.54 1010.76 1072.17 1062.54" fill="#a1b3d1"/><polygon points="1203.35 537.81 1212.56 498.68 1159.63 496.38 1203.35 537.81" fill="#00010d"/><polygon points="1212.56 453.8 1201.05 392.81 1153.87 420.43 1212.56 453.8" fill="#212244"/><polygon points="1159.63 496.38 1212.56 453.8 1153.87 420.43 1159.63 496.38" fill="#05051d"/><polygon points="1159.63 496.38 1212.56 498.68 1212.56 453.8 1159.63 496.38" fill="#04040f"/><polygon points="1216.01 678.2 1129.71 618.36 1114.75 678.2 1216.01 678.2" fill="#101224"/><polygon points="1195.3 704.66 1216.01 678.2 1114.75 678.2 1195.3 704.66" fill="#1d223b"/><polygon points="1151.57 779.46 1219.46 819.74 1169.98 742.64 1151.57 779.46" fill="#6e7dab"/><polygon points="1193 862.31 1219.46 819.74 1151.57 779.46 1193 862.31" fill="#d3dadd"/><polygon points="1225.22 598.8 1203.35 537.81 1158.47 557.37 1225.22 598.8" fill="#01021b"/><polygon points="1129.71 618.36 1225.22 598.8 1158.47 557.37 1129.71 618.36" fill="#060622"/><polygon points="1225.22 1067.14 1113.6 955.52 1105.54 1010.76 1225.22 1067.14" fill="#d9dfd7"/><polygon points="1105.54 1010.76 1211.41 1117.78 1225.22 1067.14 1105.54 1010.76" fill="#fdfdf6"/><polygon points="1226.37 145.41 1181.49 139.65 1176.89 169.57 1226.37 145.41" fill="#343047"/><polygon points="1216.01 678.2 1229.82 637.92 1129.71 618.36 1216.01 678.2" fill="#060518"/><polygon points="1229.82 637.92 1225.22 598.8 1129.71 618.36 1229.82 637.92" fill="#04040f"/><polygon points="1232.12 315.72 1197.6 278.89 1181.49 311.11 1232.12 315.72" fill="#40567e"/><polygon points="1199.9 365.2 1232.12 315.72 1181.49 311.11 1199.9 365.2" fill="#435a8f"/><polygon points="1113.6 955.52 1242.48 924.45 1193 862.31 1113.6 955.52" fill="#fefdfb"/><polygon points="1225.22 1067.14 1242.48 924.45 1113.6 955.52 1225.22 1067.14" fill="#cfced2"/><polygon points="1232.12 315.72 1243.63 235.16 1197.6 278.89 1232.12 315.72" fill="#080a27"/><polygon points="1197.6 278.89 1243.63 235.16 1175.73 257.03 1197.6 278.89" fill="#0b0c29"/><polygon points="1243.63 235.16 1226.37 145.41 1176.89 169.57 1243.63 235.16" fill="#272037"/><polygon points="1175.73 257.03 1243.63 235.16 1158.47 207.55 1175.73 257.03" fill="#141734"/><polygon points="1243.63 235.16 1176.89 169.57 1158.47 207.55 1243.63 235.16" fill="#171325"/><polygon points="1219.46 819.74 1244.78 782.91 1169.98 742.64 1219.46 819.74" fill="#62769b"/><polygon points="1242.48 924.45 1249.38 911.79 1193 862.31 1242.48 924.45" fill="#8b99a5"/><polygon points="1212.56 498.68 1251.68 457.26 1212.56 453.8 1212.56 498.68" fill="#64698f"/><polygon points="1252.83 423.88 1201.05 392.81 1212.56 453.8 1252.83 423.88" fill="#6c7090"/><polygon points="1212.56 453.8 1251.68 457.26 1252.83 423.88 1212.56 453.8" fill="#3a466a"/><polygon points="1199.9 365.2 1252.83 353.69 1232.12 315.72 1199.9 365.2" fill="#080f31"/><polygon points="1201.05 392.81 1252.83 353.69 1199.9 365.2 1201.05 392.81" fill="#496397"/><polygon points="1195.3 704.66 1258.59 735.73 1216.01 678.2 1195.3 704.66" fill="#93a4cd"/><polygon points="1169.98 742.64 1258.59 735.73 1195.3 704.66 1169.98 742.64" fill="#56659a"/><polygon points="1244.78 782.91 1258.59 735.73 1169.98 742.64 1244.78 782.91" fill="#778dc1"/><polygon points="1262.04 163.82 1226.37 145.41 1243.63 235.16 1262.04 163.82" fill="#454873"/><polygon points="1264.34 396.27 1201.05 392.81 1252.83 423.88 1264.34 396.27" fill="#0b153a"/><polygon points="1264.34 396.27 1252.83 353.69 1201.05 392.81 1264.34 396.27" fill="#0d1443"/><polygon points="1211.41 1117.78 1198.85 1200 1205.04 1200 1267.79 1193.72 1211.41 1117.78" fill="#f6f6f3"/><polygon points="1205.04 1200 1264.09 1200 1267.79 1193.72 1205.04 1200" fill="#f9faf8"/><polygon points="1251.68 457.26 1268.94 446.9 1252.83 423.88 1251.68 457.26" fill="#a4c4e6"/><polygon points="1252.83 423.88 1268.94 446.9 1264.34 396.27 1252.83 423.88" fill="#060a2b"/><polygon points="1193 862.31 1270.1 877.27 1219.46 819.74 1193 862.31" fill="#bbc3e0"/><polygon points="1249.38 911.79 1270.1 877.27 1193 862.31 1249.38 911.79" fill="#050528"/><polygon points="1203.35 537.81 1270.1 584.99 1212.56 498.68 1203.35 537.81" fill="#394672"/><polygon points="1225.22 598.8 1270.1 584.99 1203.35 537.81 1225.22 598.8" fill="#4e5d87"/><polygon points="1271.25 670.14 1229.82 637.92 1216.01 678.2 1271.25 670.14" fill="#172044"/><polygon points="1211.41 1117.78 1274.7 1049.88 1225.22 1067.14 1211.41 1117.78" fill="#92c3e3"/><polygon points="1267.79 1193.72 1274.7 1049.88 1211.41 1117.78 1267.79 1193.72" fill="#c0d8e9"/><polygon points="1258.59 735.73 1275.85 678.2 1216.01 678.2 1258.59 735.73" fill="#353b5c"/><polygon points="1275.85 678.2 1271.25 670.14 1216.01 678.2 1275.85 678.2" fill="#373e5e"/><polygon points="1271.25 670.14 1282.75 613.76 1229.82 637.92 1271.25 670.14" fill="#8395b1"/><polygon points="1229.82 637.92 1282.75 613.76 1225.22 598.8 1229.82 637.92" fill="#363b5e"/><polygon points="1282.75 613.76 1270.1 584.99 1225.22 598.8 1282.75 613.76" fill="#576083"/><polygon points="1285.06 297.31 1243.63 235.16 1232.12 315.72 1285.06 297.31" fill="#040517"/><polygon points="1252.83 353.69 1285.06 297.31 1232.12 315.72 1252.83 353.69" fill="#0a092c"/><polygon points="1288.51 197.19 1262.04 163.82 1243.63 235.16 1288.51 197.19" fill="#3f4265"/><polygon points="1290.81 970.48 1242.48 924.45 1225.22 1067.14 1290.81 970.48" fill="#eff7fd"/><polygon points="1274.7 1049.88 1290.81 970.48 1225.22 1067.14 1274.7 1049.88" fill="#d3e7ef"/><polygon points="1219.46 819.74 1295.41 843.9 1244.78 782.91 1219.46 819.74" fill="#4f5776"/><polygon points="1270.1 877.27 1295.41 843.9 1219.46 819.74 1270.1 877.27" fill="#0b0b28"/><polygon points="1212.56 498.68 1301.16 464.16 1251.68 457.26 1212.56 498.68" fill="#94b1d4"/><polygon points="1270.1 584.99 1301.16 464.16 1212.56 498.68 1270.1 584.99" fill="#5d6689"/><polygon points="1251.68 457.26 1301.16 464.16 1268.94 446.9 1251.68 457.26" fill="#afc8d3"/><polygon points="1275.85 678.2 1306.92 689.7 1271.25 670.14 1275.85 678.2" fill="#373d5e"/><polygon points="1306.92 689.7 1282.75 613.76 1271.25 670.14 1306.92 689.7" fill="#8fb5c9"/><polygon points="1258.59 735.73 1306.92 727.68 1275.85 678.2 1258.59 735.73" fill="#0f1028"/><polygon points="1306.92 727.68 1306.92 689.7 1275.85 678.2 1306.92 727.68" fill="#222946"/><polygon points="1285.06 297.31 1308.07 228.26 1243.63 235.16 1285.06 297.31" fill="#020315"/><polygon points="1308.07 228.26 1288.51 197.19 1243.63 235.16 1308.07 228.26" fill="#3b466d"/><polygon points="1244.78 782.91 1308.07 776.01 1258.59 735.73 1244.78 782.91" fill="#000617"/><polygon points="1308.07 776.01 1306.92 727.68 1258.59 735.73 1308.07 776.01" fill="#12152f"/><polygon points="1295.41 843.9 1308.07 816.28 1244.78 782.91 1295.41 843.9" fill="#151531"/><polygon points="1308.07 816.28 1308.07 776.01 1244.78 782.91 1308.07 816.28" fill="#0b102d"/><polygon points="1268.94 446.9 1314.97 390.51 1264.34 396.27 1268.94 446.9" fill="#10163a"/><polygon points="1268.94 446.9 1301.16 464.16 1314.97 390.51 1268.94 446.9" fill="#0a0f2d"/><polygon points="1314.97 390.51 1252.83 353.69 1264.34 396.27 1314.97 390.51" fill="#060f2c"/><polygon points="1320.73 266.24 1308.07 228.26 1285.06 297.31 1320.73 266.24" fill="#292c48"/><polygon points="1333.38 305.36 1320.73 266.24 1285.06 297.31 1333.38 305.36" fill="#201c2c"/><polygon points="1336.84 358.29 1333.38 305.36 1285.06 297.31 1336.84 358.29" fill="#141625"/><polygon points="1252.83 353.69 1336.84 358.29 1285.06 297.31 1252.83 353.69" fill="#0a0614"/><polygon points="1314.97 390.51 1336.84 358.29 1252.83 353.69 1314.97 390.51" fill="#121027"/><polygon points="1342.59 407.77 1336.84 358.29 1314.97 390.51 1342.59 407.77" fill="#1b2235"/><polygon points="1343.74 434.24 1342.59 407.77 1314.97 390.51 1343.74 434.24" fill="#0f0e1e"/><polygon points="1301.16 464.16 1343.74 434.24 1314.97 390.51 1301.16 464.16" fill="#10111e"/><polygon points="1327.63 460.71 1343.74 434.24 1301.16 464.16 1327.63 460.71" fill="#181525"/></g></svg>